PathFileType	4	(X/Y/Z)	OpenSim_Sub07_CSBaseline_Gyro.trc
DataRate	CameraRate	NumFrames	NumMarkers	Units	OrigDataRate	OrigDataStartFrame	OrigNumFrames
100	100	17	8	m	100	974	7788
Frame#	Time	torso_imu_offset_imu	pelvis_imu_offset_imu	tibia_r_imu_offset_imu	femur_r_imu_offset_imu	tibia_l_imu_offset_imu	femur_l_imu_offset_imu	toes_r_imu_offset_imu	toes_l_imu_offset_imu
				X1	Y1	Z1	X2	Y2	Z2	X3	Y3	Z3	X4	Y4	Z4	X5	Y5	Z5	X6	Y6	Z6	X7	Y7	Z7	X8		Y8	Z8	

974	9.73000000	-0.21891861	-0.21822665	0.00282604	0.04404139	-0.17236603	0.15604339	1.19654416	-1.20840044	-1.17312952	-0.41165321	-0.12581606	-0.40966824	0.54359468	0.71789503	2.43548761	-0.29243323	1.14227345	-0.76780364	0.21859771	-0.64819742	-0.08416371	0.88093542	-4.65205864	0.50982508
975	9.74000000	-0.24448438	-0.18720068	0.00176220	0.10429976	-0.14981071	0.14470860	1.04688886	-1.14133740	-1.06330725	-0.52169219	-0.02701165	-0.58797268	0.48179996	0.79627281	2.54281201	-0.33178081	1.35161107	-0.86906163	-0.05737882	0.19260915	-0.26013011	1.28990322	-4.88494462	0.74276997
976	9.75000000	-0.22496369	-0.17006625	-0.01053481	0.20314409	-0.09293141	0.13124321	0.55433594	-0.94962787	-0.90854131	-0.36646514	0.18744689	-0.74037013	0.40479893	0.86133578	2.70182515	-0.23365411	1.53093082	-1.00773971	0.06616475	-0.03391246	-0.14384357	0.45453709	-5.22452816	1.04210875
977	9.76000000	-0.24114391	-0.16337570	-0.00306905	0.29348116	-0.03759962	0.08016458	0.08544136	-0.81728873	-0.90060328	-0.68190663	0.11815040	-0.79980555	0.27404099	1.00474895	2.80401886	-0.10603153	1.59984995	-1.18978585	0.00920832	0.01751927	-0.19075808	0.68104124	-5.72260332	0.91041741
978	9.77000000	-0.28197331	-0.14437102	0.01590347	0.37115195	0.01162664	0.03963773	-0.65943873	-0.81512526	-0.83004048	-0.82618275	0.01786230	-0.85970309	0.24797380	1.18737925	2.84620329	-0.05400264	1.64900106	-1.32612212	0.01449105	0.01355494	-0.20682362	1.79290102	-5.79789605	0.73261425
979	9.78000000	-0.32890308	-0.11443950	0.03331900	0.42840199	0.04693247	0.04253314	-1.52769617	-0.87983319	-0.64965182	-0.52617297	0.14704050	-1.08193955	0.48774555	1.34664654	2.95209279	-0.00374085	1.69219694	-1.44225374	0.01823324	0.01242134	-0.17070470	1.68446710	-5.56473091	0.83452531
980	9.79000000	-0.38437511	-0.07650855	0.05326456	0.45379258	0.07057202	0.07212228	-1.77724401	-0.92781185	-0.43273973	-0.29701147	0.14580467	-1.23113704	0.86365533	1.34561610	3.00363100	0.12718298	1.74650369	-1.57188410	0.00479816	0.03302953	-0.13239527	1.40468264	-5.35682232	1.12317470
981	9.80000000	-0.43989930	-0.03680549	0.06057984	0.46160756	0.07934918	0.10616818	-1.31381180	-0.83106198	-0.39515816	0.02265102	0.08857340	-1.23560255	1.08566919	1.25665023	2.92375492	0.25454772	1.77682983	-1.72357872	0.00039012	0.03339549	-0.11177390	0.95437579	-4.97431767	1.38590685
982	9.81000000	-0.48682183	0.01318405	0.07487915	0.46973713	0.08814811	0.14345656	-0.64620497	-0.69110956	-0.24917402	0.54662748	0.08975041	-1.22776699	1.33808638	1.14281132	2.80130809	0.36845857	1.73944964	-1.82510028	-0.00985013	0.01983846	-0.09258946	1.45752147	-4.57312708	1.75262792
983	9.82000000	-0.50873738	0.06222156	0.09624477	0.47899810	0.09627689	0.16492757	-0.04171342	-0.58781842	-0.30748084	1.00053674	0.09159856	-1.21926112	1.80873349	1.01710382	2.56517742	0.48332641	1.64611951	-1.92859647	-0.01009120	0.00202445	-0.06306245	1.15265292	-4.38002098	2.19647719
984	9.83000000	-0.52273577	0.10203050	0.12302415	0.47003037	0.10088152	0.17338398	0.38292315	-0.47873465	-0.38827614	1.24943257	0.08322756	-1.17670337	2.15130812	0.84063070	2.18594122	0.64593259	1.52872772	-1.94963475	-0.02274097	0.00265807	-0.01915081	0.79677095	-3.72236656	2.51684663
985	9.84000000	-0.53547235	0.13418166	0.14834142	0.45364455	0.09442783	0.14664523	0.73273275	-0.31486177	-0.46248123	1.31399313	0.09225226	-1.10835439	1.99894668	0.65571123	1.78277382	0.68744001	1.46797308	-1.76558026	-0.03417190	-0.00616625	0.02081058	0.00808657	-4.28170667	2.72435882
986	9.85000000	-0.54110866	0.14991836	0.17201146	0.42744541	0.08289594	0.10522188	0.97168504	-0.19849989	-0.42590027	1.25572385	0.10466423	-1.06902571	1.53153483	0.50756071	1.37018153	0.61771810	1.42614347	-1.60613800	-0.05271805	-0.03121419	0.05500034	1.38089503	-3.79180079	2.71642770
987	9.86000000	-0.54941781	0.15910347	0.18323773	0.38501546	0.06998574	0.05464341	0.93919107	-0.18117900	-0.32755150	1.08315289	0.11782644	-1.04784948	1.08877226	0.41103662	1.03610598	0.60881419	1.26251384	-1.58291494	-0.05735746	-0.04284684	0.06903254	2.94633046	1.26148976	2.52506797
988	9.87000000	-0.55022830	0.15727552	0.18839343	0.34699889	0.06385301	-0.00595335	0.58521446	-0.25732393	-0.24481037	0.86087628	0.13540039	-1.04607533	0.93339712	0.31472279	0.85222068	0.52167308	1.10862781	-1.50926810	-0.06124418	-0.02873756	0.07085222	0.77590077	2.17586686	2.16969815
989	9.88000000	-0.54513281	0.15669174	0.18913046	0.30501196	0.05767658	-0.09085536	0.04903682	-0.36561552	-0.19919667	0.64784929	0.15890432	-1.05095124	1.07646557	0.02363168	0.68089383	0.42952284	1.02670192	-1.44207209	-0.07552826	-0.03344862	0.08333338	1.31185130	3.60189260	2.29888790
990	9.89000000	-0.53196060	0.16171239	0.19329972	0.27119864	0.04819045	-0.18794525	-0.46103399	-0.42790219	-0.16704523	0.40990266	0.18542782	-1.05712460	1.35124927	-0.38200946	0.39652700	0.39475630	1.01088108	-1.44775112	-0.08131216	-0.03354584	0.10197338	0.26204727	3.41484719	2.37945420
